<?xml version="1.0" standalone="no"?>
<!DOCTYPE svg PUBLIC "-//W3C//DTD SVG 20010904//EN"
 "http://www.w3.org/TR/2001/REC-SVG-20010904/DTD/svg10.dtd">
<svg version="1.0" xmlns="http://www.w3.org/2000/svg"
 width="1024.000000pt" height="1024.000000pt" viewBox="0 0 1024.000000 1024.000000"
 preserveAspectRatio="xMidYMid meet">
<metadata>
Created by potrace 1.14, written by Peter Selinger 2001-2017
</metadata>
<g transform="translate(0.000000,1024.000000) scale(0.100000,-0.100000)"
fill="#000000" stroke="none">
<path d="M3080 8359 c-105 -10 -289 -56 -395 -98 -412 -165 -701 -506 -816
-961 l-24 -95 0 -2045 c0 -2221 -3 -2092 57 -2279 141 -442 456 -744 906 -872
59 -16 141 -32 182 -34 41 -3 995 -7 2118 -9 2245 -6 2086 -10 2304 55 206 61
373 162 528 318 158 159 252 316 330 550 77 230 72 88 77 2161 5 2005 3 2125
-42 2290 -33 122 -95 276 -141 352 -57 94 -205 269 -291 343 -182 159 -363
251 -608 308 -90 21 -96 21 -2095 23 -1103 1 -2043 -2 -2090 -7z m2405 -763
c125 -36 275 -115 368 -192 92 -77 205 -207 246 -284 l30 -55 1 111 c0 79 4
115 13 122 22 18 120 40 213 47 135 11 253 -13 382 -76 440 -214 562 -797 243
-1163 -105 -120 -219 -190 -387 -238 -114 -31 -290 -32 -391 0 l-73 23 0 110
0 111 -49 -74 c-67 -99 -209 -243 -302 -304 -90 -60 -225 -116 -340 -141 -125
-27 -386 -24 -491 5 -236 65 -437 201 -584 395 -61 81 -139 241 -165 342 -32
125 -37 331 -10 462 87 419 387 721 811 814 129 28 362 21 485 -15z m-1285
-1673 c39 -60 90 -119 174 -199 l118 -114 -805 0 c-546 0 -815 3 -834 11 -91
34 -138 159 -97 257 20 49 60 90 109 113 38 17 77 19 660 18 l620 0 55 -86z
m3501 -88 c4 -16 7 -564 8 -1216 1 -1008 -1 -1188 -13 -1205 -14 -18 -16 -18
-58 -2 -76 29 -523 225 -587 258 l-62 31 5 607 c3 334 5 747 5 918 l1 312 323
165 c195 101 332 165 347 164 19 -2 26 -9 31 -32z m-2434 -453 c66 -35 110
-79 140 -140 l28 -57 3 -840 c2 -566 -1 -856 -8 -891 -15 -71 -66 -151 -124
-195 -96 -72 -31 -69 -1312 -69 -1326 0 -1206 -9 -1316 100 -106 105 -99 33
-96 1031 l3 854 27 57 c33 71 95 132 161 157 51 20 74 20 1252 18 l1200 -2 42
-23z m1473 -781 c0 -502 -4 -802 -10 -806 -5 -3 -114 39 -242 93 l-233 99 -5
579 c-4 428 -2 583 7 593 13 15 452 240 471 241 9 0 12 -166 12 -799z m-751
613 l28 -31 6 -646 c7 -700 7 -702 -46 -741 -22 -16 -46 -21 -125 -24 -113 -4
-144 5 -172 50 -19 32 -20 51 -20 698 0 595 2 668 16 688 25 36 50 42 172 39
113 -2 114 -2 141 -33z"/>
<path d="M5085 7479 c-149 -22 -333 -101 -445 -192 -204 -166 -329 -431 -330
-695 0 -390 261 -738 640 -854 84 -25 287 -35 399 -19 290 43 544 227 671 486
79 163 111 391 75 550 -21 98 -82 247 -125 311 -204 301 -548 461 -885 413z
m251 -413 c80 -21 153 -65 219 -131 150 -150 188 -387 93 -584 -31 -64 -128
-163 -196 -199 -200 -107 -445 -76 -596 76 -96 96 -146 219 -146 362 0 220
136 403 349 471 68 22 205 24 277 5z"/>
<path d="M3090 5089 c-33 -13 -68 -47 -87 -83 -9 -18 -17 -69 -21 -133 l-5
-103 849 -1 c467 -1 883 -4 924 -8 l75 -6 3 -107 c1 -60 1 -109 0 -110 -2 -2
-417 -5 -923 -8 l-920 -5 0 -410 c0 -441 0 -440 53 -488 51 -46 46 -46 986
-47 875 0 890 0 932 20 24 12 54 39 70 62 l29 41 5 606 c3 333 1 624 -3 646
-10 47 -47 99 -91 126 -30 18 -62 19 -941 18 -580 0 -919 -4 -935 -10z"/>
</g>
</svg>
